<?xml version="1.0" encoding="UTF-8"?>
<svg width="30px" height="30px" viewBox="0 0 30 30" version="1.1" xmlns="http://www.w3.org/2000/svg" xmlns:xlink="http://www.w3.org/1999/xlink">
    <!-- Generator: Sketch 62 (91390) - https://sketch.com -->
    <title>icon-fulfilled</title>
    <desc>Created with Sketch.</desc>
    <g id="Dark" stroke="none" stroke-width="1" fill="none" fill-rule="evenodd">
        <g id="Order:-Fulfilled-(Collapsed)" transform="translate(-15.000000, -15.000000)" fill="#C8E6C9" fill-rule="nonzero">
            <g id="Order-(Collapsed)">
                <g id="tick" transform="translate(15.000000, 15.000000)">
                    <path d="M24.375,0 L5.625,0 C2.518125,0 0,2.52 0,5.625 L0,24.375 C0,27.481875 2.518125,30 5.625,30 L24.375,30 C27.481875,30 30,27.481875 30,24.375 L30,5.625 C30,2.52 27.481875,0 24.375,0 Z M26.25,24.375 C26.25,25.411875 25.411875,26.25 24.375,26.25 L5.625,26.25 C4.59,26.25 3.75,25.411875 3.75,24.375 L3.75,5.625 C3.75,4.59 4.59,3.75 5.625,3.75 L24.375,3.75 C25.411875,3.75 26.25,4.59 26.25,5.625 L26.25,24.375 Z M19.610625,9.69375 L12.9825,16.321875 L10.329375,13.670625 C9.598125,12.9375 8.41125,12.9375 7.678125,13.670625 C6.945,14.40375 6.945,15.590625 7.678125,16.321875 L11.656875,20.29875 C12.388125,21.031875 13.575,21.031875 14.308125,20.29875 L22.261875,12.345 C22.995,11.611875 22.995,10.426875 22.261875,9.69375 C21.52875,8.960625 20.34375,8.960625 19.610625,9.69375 Z" id="icon-fulfilled"></path>
                </g>
            </g>
        </g>
    </g>
</svg>