<?xml version="1.0" encoding="UTF-8"?>
<svg width="44px" height="44px" viewBox="0 0 44 44" version="1.1" xmlns="http://www.w3.org/2000/svg" xmlns:xlink="http://www.w3.org/1999/xlink">
    <!-- Generator: Sketch 62 (91390) - https://sketch.com -->
    <title>logo</title>
    <desc>Created with Sketch.</desc>
    <defs>
        <radialGradient cx="50%" cy="50%" fx="50%" fy="50%" r="70.7106781%" id="radialGradient-1">
            <stop stop-color="#FF7043" offset="0%"></stop>
            <stop stop-color="#BF360C" offset="100%"></stop>
        </radialGradient>
        <path d="M24.75,2.65577837e-12 C25.99425,2.65577837e-12 27,1.00575 27,2.25 L27,9 L33.75,9 C34.99425,9 36,10.008 36,11.25 L36,33.75 C36,34.99425 34.99425,36 33.75,36 L11.25,36 C10.008,36 9,34.99425 9,33.75 L9,27 L2.25,27 C1.008,27 -3.11556336e-15,25.99425 -3.11556336e-15,24.75 L-3.11556336e-15,2.25 C-3.11556336e-15,1.00575 1.008,2.65577837e-12 2.25,2.65577837e-12 L24.75,2.65577837e-12 Z M19.6321859,7.51035534 C16.2850454,4.16321489 10.8574958,4.16321489 7.51035534,7.51035534 C4.16321489,10.8574958 4.16321489,16.2850454 7.51035534,19.6321859 C8.23311949,20.35495 9.06346488,20.8883106 9.93472145,21.2989376 C10.0892748,19.8443179 10.4862647,18.4290942 11.1347827,17.0866015 C10.9271963,16.9426547 10.7256709,16.7865862 10.540813,16.6017282 C8.86800036,14.9289156 8.86800036,12.2136256 10.540813,10.540813 L10.540813,10.540813 L10.7058824,10.38415 C12.3877208,8.86974106 14.9828773,8.92196206 16.6017282,10.540813 C18.2745409,12.2136256 18.2745409,14.9289156 16.6017282,16.6017282 C13.2545878,19.9488687 13.2545878,25.3764183 16.6017282,28.7235588 C19.9488687,32.0706992 25.3764183,32.0706992 28.7235588,28.7235588 C32.0706992,25.3764183 32.0706992,19.9488687 28.7235588,16.6017282 C28.0007946,15.8789641 27.1704492,15.3456036 26.2991927,14.9349765 C26.1431241,16.388081 25.7476494,17.8048199 25.0991314,19.1473127 C25.3067178,19.2912594 25.5082432,19.447328 25.6931011,19.6321859 C27.3659138,21.3049985 27.3659138,24.0202885 25.6931011,25.6931011 C24.0202885,27.3659138 21.3049985,27.3659138 19.6321859,25.6931011 C17.9593733,24.0202885 17.9593733,21.3049985 19.6321859,19.6321859 C22.9793263,16.2850454 22.9793263,10.8574958 19.6321859,7.51035534 Z" id="path-2"></path>
        <filter x="-19.4%" y="-13.9%" width="138.9%" height="138.9%" filterUnits="objectBoundingBox" id="filter-3">
            <feOffset dx="0" dy="2" in="SourceAlpha" result="shadowOffsetOuter1"></feOffset>
            <feGaussianBlur stdDeviation="2" in="shadowOffsetOuter1" result="shadowBlurOuter1"></feGaussianBlur>
            <feColorMatrix values="0 0 0 0 0   0 0 0 0 0   0 0 0 0 0  0 0 0 0.5 0" type="matrix" in="shadowBlurOuter1"></feColorMatrix>
        </filter>
    </defs>
    <g id="Dark" stroke="none" stroke-width="1" fill="none" fill-rule="evenodd">
        <g id="Nexus-9" transform="translate(-21.000000, -23.000000)" fill-rule="nonzero">
            <g id="Toolbar" transform="translate(25.000000, 23.000000)">
                <g id="Logo" transform="translate(0.000000, 2.000000)">
                    <g id="logo">
                        <use fill="black" fill-opacity="1" filter="url(#filter-3)" xlink:href="#path-2"></use>
                        <use fill="url(#radialGradient-1)" xlink:href="#path-2"></use>
                    </g>
                </g>
            </g>
        </g>
    </g>
</svg>