<?xml version="1.0" encoding="UTF-8"?>
<svg width="30px" height="30px" viewBox="0 0 30 30" version="1.1" xmlns="http://www.w3.org/2000/svg" xmlns:xlink="http://www.w3.org/1999/xlink">
    <!-- Generator: Sketch 62 (91390) - https://sketch.com -->
    <title>icon-delete</title>
    <desc>Created with Sketch.</desc>
    <g id="Dark" stroke="none" stroke-width="1" fill="none" fill-rule="evenodd">
        <g id="Order:-Cancelled-(Collapsed)" transform="translate(-15.000000, -15.000000)" fill="#FFFFFF" fill-rule="nonzero">
            <g id="Order-(Collapsed)">
                <g id="delete" transform="translate(15.000000, 15.000000)">
                    <path d="M15,30 C6.71625,30 0,23.28375 0,15 C0,6.71625 6.71625,0 15,0 C23.28375,0 30,6.71625 30,15 C30,23.28375 23.28375,30 15,30 Z M15,3.75 C8.788125,3.75 3.75,8.788125 3.75,15 C3.75,21.211875 8.788125,26.25 15,26.25 C21.211875,26.25 26.25,21.211875 26.25,15 C26.25,8.788125 21.211875,3.75 15,3.75 Z M20.3025,20.3025 C19.569375,21.035625 18.384375,21.035625 17.65125,20.3025 L15,17.65125 L12.34875,20.3025 C11.615625,21.035625 10.42875,21.035625 9.695625,20.3025 C8.9625,19.569375 8.9625,18.384375 9.695625,17.65125 L12.34875,15 L9.695625,12.34875 C8.9625,11.615625 8.9625,10.42875 9.695625,9.695625 C10.42875,8.9625 11.615625,8.9625 12.34875,9.695625 L15,12.34875 L17.65125,9.695625 C18.384375,8.9625 19.569375,8.9625 20.3025,9.695625 C21.035625,10.42875 21.035625,11.615625 20.3025,12.34875 L17.65125,15 L20.3025,17.65125 C21.035625,18.384375 21.035625,19.57125 20.3025,20.3025 Z" id="icon-delete"></path>
                </g>
            </g>
        </g>
    </g>
</svg>