<?xml version="1.0" encoding="UTF-8"?>
<svg width="30px" height="30px" viewBox="0 0 30 30" version="1.1" xmlns="http://www.w3.org/2000/svg" xmlns:xlink="http://www.w3.org/1999/xlink">
    <!-- Generator: Sketch 62 (91390) - https://sketch.com -->
    <title>icon-pending</title>
    <desc>Created with Sketch.</desc>
    <g id="Dark" stroke="none" stroke-width="1" fill="none" fill-rule="evenodd">
        <g id="Order:-New-(Collapsed)" transform="translate(-15.000000, -15.000000)" fill="#26A69A" fill-rule="nonzero">
            <g id="Order-(Collapsed)">
                <g id="Status" transform="translate(15.000000, 15.000000)">
                    <path d="M28.125,16.875 L24.375,16.875 C23.338125,16.875 22.5,16.036875 22.5,15 C22.5,13.965 23.338125,13.125 24.375,13.125 L28.125,13.125 C29.161875,13.125 30,13.965 30,15 C30,16.036875 29.161875,16.875 28.125,16.875 Z M22.95375,9.6975 C22.220625,10.430625 21.035625,10.430625 20.3025,9.6975 C19.569375,8.964375 19.569375,7.779375 20.3025,7.04625 L22.95375,4.393125 C23.686875,3.661875 24.871875,3.661875 25.605,4.393125 C26.338125,5.12625 26.338125,6.313125 25.605,7.04625 L22.95375,9.6975 Z M15,30 C13.965,30 13.125,29.161875 13.125,28.125 L13.125,24.375 C13.125,23.34 13.965,22.5 15,22.5 C16.036875,22.5 16.875,23.34 16.875,24.375 L16.875,28.125 C16.875,29.161875 16.036875,30 15,30 Z M15,7.5 C13.965,7.5 13.125,6.661875 13.125,5.625 L13.125,1.875 C13.125,0.84 13.965,0 15,0 C16.036875,0 16.875,0.84 16.875,1.875 L16.875,5.625 C16.875,6.661875 16.036875,7.5 15,7.5 Z M7.044375,25.606875 C6.31125,26.34 5.12625,26.34 4.393125,25.606875 C3.66,24.87375 3.66,23.686875 4.393125,22.955625 L7.044375,20.3025 C7.7775,19.57125 8.964375,19.57125 9.695625,20.3025 C10.42875,21.035625 10.42875,22.2225 9.695625,22.955625 L7.044375,25.606875 Z M7.044375,9.6975 L4.393125,7.04625 C3.66,6.313125 3.66,5.12625 4.393125,4.393125 C5.12625,3.661875 6.31125,3.661875 7.044375,4.393125 L9.695625,7.04625 C10.42875,7.779375 10.42875,8.964375 9.695625,9.6975 C8.964375,10.42875 7.7775,10.42875 7.044375,9.6975 Z M7.5,15 C7.5,16.036875 6.66,16.875 5.625,16.875 L1.875,16.875 C0.84,16.875 0,16.036875 0,15 C0,13.965 0.84,13.125 1.875,13.125 L5.625,13.125 C6.66,13.125 7.5,13.965 7.5,15 Z M22.95375,20.3025 L25.605,22.955625 C26.338125,23.686875 26.338125,24.87375 25.605,25.606875 C24.871875,26.34 23.686875,26.34 22.95375,25.606875 L20.3025,22.955625 C19.569375,22.2225 19.569375,21.035625 20.3025,20.3025 C21.035625,19.57125 22.2225,19.57125 22.95375,20.3025 Z" id="icon-pending"></path>
                </g>
            </g>
        </g>
    </g>
</svg>